<?xml version="1.0" encoding="UTF-8"?>
<svg version="1.1" xmlns="http://www.w3.org/2000/svg" width="678" height="677">
<path d="M0 0 C223.74 0 447.48 0 678 0 C678 223.41 678 446.82 678 677 C454.26 677 230.52 677 0 677 C0 453.59 0 230.18 0 0 Z " fill="#1A1A1A" transform="translate(0,0)"/>
<path d="M0 0 C0.87183426 -0.00671722 1.74366852 -0.01343445 2.641922 -0.02035522 C5.52834751 -0.0393772 8.41454107 -0.04326141 11.30102539 -0.04541016 C13.3049784 -0.05183472 15.30893046 -0.05856282 17.31288147 -0.06558228 C21.5152504 -0.07756523 25.71753706 -0.08126201 29.91992188 -0.08007812 C35.30831972 -0.07987478 40.69619108 -0.1071888 46.08446407 -0.14162254 C50.22370331 -0.16384402 54.36281483 -0.16791714 58.50210762 -0.16685867 C60.48886494 -0.16922135 62.47562543 -0.17808219 64.46232414 -0.19352341 C67.23958251 -0.21308911 70.01569244 -0.20738281 72.79296875 -0.1953125 C73.61544098 -0.20655151 74.43791321 -0.21779053 75.28530884 -0.22937012 C78.84341616 -0.19001434 80.99187832 -0.06102802 83.88282776 2.10458374 C86.05634457 5.11479914 87.66948327 8.30422788 89.21118164 11.66552734 C89.52700195 12.31263672 89.84282227 12.95974609 90.16821289 13.62646484 C92.05620976 17.68034556 92.82025611 20.82971754 92.46118164 25.29052734 C93.12118164 25.29052734 93.78118164 25.29052734 94.46118164 25.29052734 C98.63886159 32.66046641 102.28159722 40.11795905 105.58618164 47.91552734 C106.4218069 49.86618197 107.25774027 51.81670463 108.09399414 53.76708984 C108.48876953 54.69424805 108.88354492 55.62140625 109.2902832 56.57666016 C110.73090488 59.91568238 112.23439103 63.22427472 113.75756836 66.52636719 C114.46118164 68.29052734 114.46118164 68.29052734 114.46118164 70.29052734 C115.12118164 70.29052734 115.78118164 70.29052734 116.46118164 70.29052734 C116.69192383 70.84289062 116.92266602 71.39525391 117.16040039 71.96435547 C121.25591452 81.73369451 125.39942012 91.42523369 130.23535156 100.8527832 C133.98175711 108.20663671 137.37925832 115.71856834 140.81665039 123.22045898 C144.22918553 130.65529427 147.7196133 138.04739713 151.27368164 145.41552734 C154.8226836 152.77438512 158.24858524 160.16616067 161.44482422 167.68554688 C162.59730982 170.71000512 162.59730982 170.71000512 164.46118164 173.29052734 C166.79077634 173.79294056 166.79077634 173.79294056 169.46118164 173.29052734 C170.28618164 172.44490234 171.11118164 171.59927734 171.96118164 170.72802734 C174.46118164 168.29052734 174.46118164 168.29052734 177.02368164 168.10302734 C181.96914862 170.51235741 183.59932097 175.507432 185.73461914 180.29443359 C187.5149772 184.24178653 189.34770216 188.15449758 191.25024414 192.04443359 C191.95020508 193.48012695 191.95020508 193.48012695 192.66430664 194.94482422 C193.61527477 196.88986754 194.5710401 198.83257247 195.53149414 200.77294922 C198.4700151 206.82548614 200.75698727 212.77915145 202.46118164 219.29052734 C203.12118164 219.29052734 203.78118164 219.29052734 204.46118164 219.29052734 C204.77571289 220.06396484 205.09024414 220.83740234 205.41430664 221.63427734 C207.60180797 226.95807576 209.84649224 232.17611717 212.49243164 237.28662109 C214.02493212 240.45667248 215.24057198 243.74731347 216.51196289 247.02880859 C217.46570767 249.45857389 217.46570767 249.45857389 219.21118164 252.16552734 C220.46118164 254.29052734 220.46118164 254.29052734 220.46118164 258.29052734 C221.12118164 258.29052734 221.78118164 258.29052734 222.46118164 258.29052734 C223.88621854 261.14060114 223.73025091 263.11854174 223.46118164 266.29052734 C221.96508789 269.46630859 221.96508789 269.46630859 220.02368164 272.60302734 C219.3855957 273.65103516 218.74750977 274.69904297 218.09008789 275.77880859 C216.46118164 278.29052734 216.46118164 278.29052734 215.46118164 279.29052734 C212.37220494 279.40186492 209.30538229 279.44793325 206.21557617 279.45166016 C205.24489197 279.45662506 204.27420776 279.46158997 203.27410889 279.46670532 C200.04739689 279.48136858 196.82073405 279.48813581 193.59399414 279.49365234 C191.36058551 279.49940031 189.1271769 279.50515808 186.89376831 279.51092529 C182.20448577 279.52144711 177.51522043 279.52728206 172.82592773 279.53076172 C166.80748836 279.53624929 160.78927491 279.56027809 154.77090645 279.58873367 C150.15562265 279.60732703 145.54039363 279.61256389 140.92507553 279.6140976 C138.7058374 279.61713207 136.4866004 279.62518714 134.26739883 279.63828278 C131.16661484 279.65527445 128.0663874 279.65347983 124.96557617 279.64697266 C124.04285919 279.65618744 123.12014221 279.66540222 122.16946411 279.67489624 C121.32536987 279.66932709 120.48127563 279.66375793 119.61160278 279.65802002 C118.87823259 279.65948658 118.1448624 279.66095314 117.38926888 279.66246414 C114.90219907 279.18269706 114.02984951 278.23810528 112.46118164 276.29052734 C111.65258789 274.27490234 111.65258789 274.27490234 111.02368164 272.04052734 C109.90594334 268.42534254 108.46999499 265.41102612 106.49633789 262.16162109 C104.84815551 259.1824537 103.69627027 256.02508522 102.47290039 252.85302734 C101.19385367 249.6134341 99.7565276 246.45816683 98.29321289 243.29833984 C97.47034693 241.31264452 96.92633853 239.38608264 96.46118164 237.29052734 C95.80118164 237.29052734 95.14118164 237.29052734 94.46118164 237.29052734 C94.17919922 236.60539063 93.8972168 235.92025391 93.60668945 235.21435547 C92.31126143 232.07180198 91.01125774 228.93116062 89.71118164 225.79052734 C89.26774414 224.71287109 88.82430664 223.63521484 88.36743164 222.52490234 C85.55705771 215.74694169 82.75052978 209.04042164 78.91821289 202.76318359 C77.02222294 199.54559206 75.60077964 196.16040809 74.14868164 192.72802734 C71.99533069 187.71061072 69.75963073 182.78016377 67.27368164 177.91552734 C65.56283732 174.56101846 63.99249362 171.24494067 62.64868164 167.72802734 C57.99384948 155.69499649 51.93571604 144.16025303 46.13232422 132.6496582 C44.14933128 128.70517768 42.26699574 124.74251605 40.51977539 120.68896484 C39.35525955 118.05054149 38.12830127 115.44383204 36.8972168 112.8359375 C34.64113623 108.05662443 32.40267036 103.29685545 30.52368164 98.35302734 C28.8309821 93.97660332 26.77455374 89.84245202 24.64868164 85.66552734 C21.56350349 79.60254383 18.72894233 73.47751457 16.03833008 67.23046875 C12.13777665 58.18464603 7.99227052 49.25820063 3.52368164 40.47802734 C0.5852393 34.67204341 -2.04790469 28.74658586 -4.64794922 22.78344727 C-6.5413447 18.45754115 -8.54402652 14.23497803 -10.75732422 10.0625 C-11.95273715 7.35200108 -12.02088403 5.18292139 -11.53881836 2.29052734 C-7.67740826 -0.28374605 -4.47850017 -0.00492323 0 0 Z " fill="#EB9902" transform="translate(180.538818359375,171.70947265625)"/>
<path d="M0 0 C0.86208069 -0.00817749 1.72416138 -0.01635498 2.61236572 -0.02478027 C5.46626084 -0.04960213 8.32010645 -0.06613904 11.17407227 -0.08056641 C12.14822649 -0.08589008 13.12238071 -0.09121376 14.12605476 -0.09669876 C19.27885272 -0.12341202 24.43162657 -0.14279572 29.58447266 -0.15722656 C34.91240207 -0.17390113 40.23971614 -0.21870754 45.56741238 -0.26959801 C49.66031122 -0.30320305 53.75306248 -0.31479635 57.8460865 -0.32045364 C59.81054469 -0.32718111 61.77499266 -0.34244179 63.73931694 -0.36634445 C66.4855817 -0.39786463 69.23016534 -0.39805323 71.9765625 -0.390625 C73.19624474 -0.415233 73.19624474 -0.415233 74.44056702 -0.44033813 C78.40218729 -0.39639992 80.13557038 -0.21630919 83.0177002 2.60900879 C85.67888112 7.08775704 85.67888112 7.08775704 86.58813477 8.93505859 C86.92264648 9.60923828 87.2571582 10.28341797 87.60180664 10.97802734 C87.93631836 11.66767578 88.27083008 12.35732422 88.61547852 13.06787109 C88.95385742 13.74978516 89.29223633 14.43169922 89.64086914 15.13427734 C91.75654946 19.43111359 93.68485984 23.78163921 95.55297852 28.19287109 C97.03785141 31.57466999 98.54416654 34.94669713 100.05297852 38.31787109 C100.44356445 39.19830078 100.83415039 40.07873047 101.23657227 40.98583984 C103.13416882 45.22188872 105.08174098 49.25364469 107.55297852 53.19287109 C108.29727366 54.87562533 109.03902481 56.55983496 109.74438477 58.25927734 C110.60457106 60.31624458 111.51258895 62.34739749 112.42797852 64.38037109 C114.03994121 67.97204463 115.52289945 71.60252538 116.99047852 75.25537109 C118.49660003 78.92974804 120.08791387 82.21149974 122.30297852 85.50537109 C124.70308075 89.0942387 125.28493767 91.9042175 125.55297852 96.19287109 C126.21297852 96.19287109 126.87297852 96.19287109 127.55297852 96.19287109 C128.0724707 97.36462891 128.59196289 98.53638672 129.12719727 99.74365234 C130.92873695 103.80522681 132.73589196 107.86428217 134.54418945 111.92285156 C135.39850389 113.84526579 136.24602557 115.77069649 137.09204102 117.69677734 C137.51227539 118.64423828 137.93250977 119.59169922 138.36547852 120.56787109 C138.72254883 121.37998047 139.07961914 122.19208984 139.44750977 123.02880859 C140.50640693 125.25786088 140.50640693 125.25786088 142.13110352 127.27490234 C143.55297852 129.19287109 143.55297852 129.19287109 144.49047852 132.50537109 C145.4471548 135.82560055 146.69896567 138.30032374 148.47485352 141.23583984 C150.57084127 145.04051327 152.00337871 149.14307665 153.55297852 153.19287109 C153.92165039 154.05654297 154.29032227 154.92021484 154.67016602 155.81005859 C155.55297852 158.19287109 155.55297852 158.19287109 155.55297852 161.19287109 C156.21297852 161.19287109 156.87297852 161.19287109 157.55297852 161.19287109 C158.54297852 164.65787109 158.54297852 164.65787109 159.55297852 168.19287109 C160.21297852 168.19287109 160.87297852 168.19287109 161.55297852 168.19287109 C162.01188477 169.32724609 162.47079102 170.46162109 162.94360352 171.63037109 C163.56322974 173.15127184 164.18303079 174.67210137 164.80297852 176.19287109 C165.10333008 176.93666016 165.40368164 177.68044922 165.71313477 178.44677734 C167.52499723 182.88005783 169.50105822 187.16786047 171.67797852 191.43310547 C172.73418631 193.55730909 173.6004657 195.72040809 174.42797852 197.94287109 C176.75761581 203.88933827 179.64683801 209.51143527 182.55297852 215.19287109 C183.78739469 217.62774702 185.01467026 220.06615297 186.24047852 222.50537109 C186.8012207 223.61525391 187.36196289 224.72513672 187.93969727 225.86865234 C190.80426894 231.77119592 193.20128156 237.81581758 195.49047852 243.95849609 C196.39736989 246.2072516 196.39736989 246.2072516 197.99047852 247.56787109 C200.33787209 250.00916041 201.26934463 252.82738469 202.55297852 255.94287109 C203.04797852 257.13396484 203.54297852 258.32505859 204.05297852 259.55224609 C204.54797852 260.75365234 205.04297852 261.95505859 205.55297852 263.19287109 C206.10734715 264.44301254 206.66202635 265.69301632 207.21704102 266.94287109 C208.62765122 270.37453101 209.05279469 272.52755245 208.55297852 276.19287109 C207.53552246 277.84048462 207.53552246 277.84048462 205.55297852 279.19287109 C202.77984194 279.48899653 200.23118929 279.60267002 197.45727539 279.58105469 C196.22026634 279.58894012 196.22026634 279.58894012 194.95826721 279.59698486 C192.22922895 279.61020085 189.50077283 279.60144124 186.77172852 279.59130859 C184.87748096 279.59332887 182.98323415 279.59623992 181.08898926 279.6000061 C177.11776326 279.60443162 173.1467396 279.59799108 169.17553711 279.58398438 C164.08079676 279.56689237 158.9865305 279.57673233 153.89180756 279.59470177 C149.97992367 279.60553345 146.06815251 279.60209609 142.15626526 279.59431839 C140.27755172 279.59231468 138.398828 279.59478163 136.52012634 279.60175705 C133.89603501 279.60936143 131.27271538 279.59778185 128.64868164 279.58105469 C127.86936783 279.58712738 127.09005402 279.59320007 126.28712463 279.59945679 C121.02355567 279.53718051 121.02355567 279.53718051 118.61120605 277.77212524 C114.55288353 271.71565586 109.55297852 262.53899554 109.55297852 255.19287109 C108.56297852 254.86287109 107.57297852 254.53287109 106.55297852 254.19287109 C105.74438477 252.11865234 105.74438477 252.11865234 105.11547852 249.50537109 C104.23970189 246.28360217 103.54887601 244.18671733 101.67797852 241.38037109 C99.6373196 238.31938272 98.5949067 235.76111499 97.36547852 232.31787109 C95.42985191 227.06317924 93.07868118 222.42467287 90.24047852 217.63037109 C86.13434952 210.66294208 83.06326138 203.48915344 80.20410156 195.9309082 C78.61512793 191.74217733 76.95536336 187.9966471 74.55297852 184.19287109 C73.8404351 182.24957086 73.12896358 180.30583458 72.43188477 178.35693359 C71.49422058 176.04819599 70.36161978 173.97480062 69.11547852 171.81787109 C67.38993069 168.81092533 65.96759029 165.87190088 64.74047852 162.63037109 C62.667521 157.17386721 60.01515639 152.05149329 57.28222656 146.90161133 C55.2550865 142.98628253 54.0163923 139.64717676 53.55297852 135.19287109 C52.89297852 135.19287109 52.23297852 135.19287109 51.55297852 135.19287109 C49.03121729 130.42954433 46.9375199 125.68304242 45.05297852 120.63037109 C43.24929612 115.82799692 41.27775031 111.53232246 38.55297852 107.19287109 C34.50212173 107.43918667 34.50212173 107.43918667 30.55297852 108.19287109 C28.96303522 110.11351903 28.96303522 110.11351903 28.55297852 112.19287109 C25.24047852 112.50537109 25.24047852 112.50537109 21.55297852 112.19287109 C19.80297852 110.13037109 19.80297852 110.13037109 18.55297852 107.19287109 C16.76038601 102.98417565 14.89661699 99.05734324 12.57641602 95.11474609 C11.45033299 93.0001169 10.59603622 90.86798355 9.74047852 88.63037109 C7.56759416 82.97218022 4.82465325 77.67049553 2.04125977 72.29443359 C0.86954022 69.85258236 0.04051118 67.83204792 -0.44702148 65.19287109 C-1.10702148 65.19287109 -1.76702148 65.19287109 -2.44702148 65.19287109 C-2.66745117 64.34172729 -2.66745117 64.34172729 -2.89233398 63.47338867 C-4.99288378 55.90642965 -8.10816092 48.97343357 -11.44702148 41.88037109 C-11.98069336 40.72730469 -12.51436523 39.57423828 -13.06420898 38.38623047 C-15.86421711 32.31666284 -15.86421711 32.31666284 -19.09545898 26.47338867 C-20.77604827 23.63769782 -20.9771899 22.44961995 -20.44702148 19.19287109 C-19.62145892 17.21329633 -18.67446435 15.34732167 -17.65795898 13.45849609 C-16.78508905 11.8253846 -15.96275042 10.1649092 -15.17358398 8.48974609 C-14.74819336 7.58740234 -14.32280273 6.68505859 -13.88452148 5.75537109 C-13.49135742 4.91103516 -13.09819336 4.06669922 -12.69311523 3.19677734 C-10.01695981 -1.10688326 -4.53692242 0.02370994 0 0 Z " fill="#F0F0F0" transform="translate(312.447021484375,171.80712890625)"/>
<path d="M0 0 C3.58257939 0.80608036 4.42108302 2.58798721 6.5 5.5625 C7.87890625 8.68359375 7.87890625 8.68359375 9.0625 12 C10.28728109 15.40127731 11.5266892 18.61556292 13.15234375 21.84765625 C14.5 24.5625 14.5 24.5625 14.5 26.5625 C15.16 26.5625 15.82 26.5625 16.5 26.5625 C18.76305495 31.45525009 20.79969512 36.36432168 22.625 41.4375 C25.15914077 48.14784159 28.42475293 54.37771185 31.84619141 60.67529297 C34.30510275 65.21223864 36.55288359 69.77318923 38.60473633 74.50878906 C39.3734125 76.27211166 40.19177522 78.01362746 41.01953125 79.75 C43.88481475 85.98264084 45.72641602 90.87121727 43.5 97.5625 C41.64194883 101.65149843 39.68927683 105.37322317 36.5 108.5625 C33.83588155 108.76621597 31.27527773 108.84569531 28.60961914 108.8371582 C27.79484604 108.84226913 26.98007294 108.84738007 26.14060974 108.85264587 C23.43871785 108.86658215 20.73707988 108.86558207 18.03515625 108.86328125 C16.16189987 108.86716603 14.28864436 108.87150024 12.41539001 108.87626648 C8.48531237 108.88373742 4.55532454 108.88343115 0.62524414 108.87817383 C-4.41681665 108.87237871 -9.45851017 108.88930697 -14.50051022 108.9125185 C-18.37034768 108.92723435 -22.24009626 108.92813047 -26.10995674 108.92500877 C-27.96913951 108.92552309 -29.8283271 108.93078146 -31.68748283 108.94082069 C-34.28530771 108.95312602 -36.8824117 108.94642921 -39.48022461 108.93481445 C-40.25175873 108.94245819 -41.02329285 108.95010193 -41.81820679 108.95797729 C-46.98366637 108.90680358 -46.98366637 108.90680358 -49.47389221 107.2462616 C-51.26838336 104.30164377 -50.89752485 101.9130666 -50.5 98.5625 C-49.23012031 96.52162192 -47.88617389 94.52624635 -46.5 92.5625 C-45.41586748 90.08984391 -44.45980363 87.58280247 -43.4921875 85.0625 C-42.0542178 81.43926927 -40.2909148 78.02124266 -38.5 74.5625 C-34.29756714 66.50470099 -34.29756714 66.50470099 -30.8125 58.125 C-29.5 54.5625 -29.5 54.5625 -28.0703125 52.234375 C-26.35447653 49.3148929 -25.22372198 46.42908313 -24.0625 43.25 C-22.15332838 38.15887569 -20.04254142 33.36507824 -17.5 28.5625 C-16.84 28.5625 -16.18 28.5625 -15.5 28.5625 C-15.38398438 28.04042969 -15.26796875 27.51835937 -15.1484375 26.98046875 C-14.31478235 23.87183899 -13.24059467 20.89386679 -12.125 17.875 C-11.70476562 16.71613281 -11.28453125 15.55726563 -10.8515625 14.36328125 C-10.18253906 12.97689453 -10.18253906 12.97689453 -9.5 11.5625 C-8.51 11.2325 -7.52 10.9025 -6.5 10.5625 C-6.5825 9.655 -6.665 8.7475 -6.75 7.8125 C-6.5 4.5625 -6.5 4.5625 -4.8125 2.1875 C-2.5 0.5625 -2.5 0.5625 0 0 Z " fill="#EEEEEE" transform="translate(225.5,342.4375)"/>
<path d="M0 0 C0.99902344 -0.00128906 1.99804688 -0.00257813 3.02734375 -0.00390625 C7.10265588 0.75660888 9.08260972 1.63067246 12.0625 4.5625 C12.9323637 8.0800426 12.85518215 11.45695358 12.75 15.0625 C12.76482422 16.01253906 12.77964844 16.96257813 12.79492188 17.94140625 C12.71337106 24.76289241 12.71337106 24.76289241 9.92578125 28.1875 C6.57449222 29.79685026 4.27334422 30.09718079 0.5625 30.0625 C-0.5409375 30.0728125 -1.644375 30.083125 -2.78125 30.09375 C-6.79170015 29.41872374 -8.33647329 28.72088957 -10.9375 25.5625 C-11.67112638 22.23361287 -11.63564287 19.02126711 -11.5625 15.625 C-11.58183594 14.73103516 -11.60117187 13.83707031 -11.62109375 12.91601562 C-11.58804392 8.4642036 -11.37617964 6.1885077 -8.76953125 2.46875 C-5.52734628 0.28642412 -3.87469094 -0.08477445 0 0 Z " fill="#E0E0E0" transform="translate(468.9375,511.4375)"/>
<path d="M0 0 C2 3 2 3 3.3125 5.6875 C4.77986089 8.20921203 4.77986089 8.20921203 7.375 8.625 C10.2663841 8.18370823 10.2663841 8.18370823 12.5 5.4375 C15 3 15 3 17.5625 2.8125 C22.50796698 5.22183007 24.13813932 10.21690466 26.2734375 15.00390625 C28.05379556 18.95125919 29.88652052 22.86397024 31.7890625 26.75390625 C32.25570312 27.71103516 32.72234375 28.66816406 33.203125 29.65429688 C34.15409313 31.5993402 35.10985846 33.54204512 36.0703125 35.48242188 C39.00883346 41.5349588 41.29580563 47.48862411 43 54 C43.66 54 44.32 54 45 54 C45.31453125 54.7734375 45.6290625 55.546875 45.953125 56.34375 C48.14062633 61.66754842 50.3853106 66.88558983 53.03125 71.99609375 C54.56375048 75.16614514 55.77939034 78.45678613 57.05078125 81.73828125 C58.00452603 84.16804654 58.00452603 84.16804654 59.75 86.875 C61 89 61 89 61 93 C61.66 93 62.32 93 63 93 C64.88363143 96.76726286 64.23161876 100.2483024 63.0236969 104.16850281 C61.31212062 107.65491116 59.74858479 110.23935435 57 113 C51.73852354 114.68285742 46.65825096 114.42886749 41.21484375 114.20703125 C39.66986229 114.1871545 38.12480592 114.17248409 36.57972717 114.1627655 C32.52402703 114.12276064 28.47349609 114.00994609 24.41973877 113.88226318 C20.30325429 113.76656961 16.18606025 113.72449017 12.06835938 113.67382812 C6.04318678 113.58667153 0.01919109 113.47793736 -6.00415039 113.30395508 C-7.21325577 113.26998123 -8.42236115 113.23600739 -9.66810608 113.20100403 C-12.84383809 113.00942082 -15.87538579 112.58645701 -19 112 C-19 111.67 -19 111.34 -19 111 C-14.75554299 110.84979616 -10.51088681 110.70832869 -6.26589966 110.5741272 C-4.71481335 110.52474664 -3.16376653 110.47410968 -1.61276245 110.42221069 C7.88907146 110.1094007 17.36101584 109.97176258 26.8671875 110.14453125 C28.64965693 110.17066025 30.43212762 110.19670283 32.21459961 110.22265625 C34.81904526 110.2618832 37.42102172 110.31197126 40.02444458 110.39550781 C42.45273099 110.47334897 44.8793763 110.51518943 47.30859375 110.55078125 C48.03001556 110.5849263 48.75143738 110.61907135 49.49472046 110.6542511 C51.7797858 110.73194032 51.7797858 110.73194032 55 110 C58.00690231 106.49240414 59.8732377 103.09384915 60.31640625 98.41796875 C59.72280598 93.88169011 57.43780089 89.9715352 55.34765625 85.953125 C54 83 54 83 54 79 C53.34 79 52.68 79 52 79 C50.1607188 74.87762652 48.32958658 70.75168422 46.5 66.625 C45.97535156 65.449375 45.45070313 64.27375 44.91015625 63.0625 C44.41386719 61.94101562 43.91757812 60.81953125 43.40625 59.6640625 C42.94541016 58.62717285 42.48457031 57.5902832 42.00976562 56.52197266 C41 54 41 54 41 52 C40.34 52 39.68 52 39 52 C38.566875 50.824375 38.13375 49.64875 37.6875 48.4375 C36.64678496 45.64243675 35.53337229 42.9083011 34.3125 40.1875 C33 37 33 37 33 34 C32.34 34 31.68 34 31 34 C31 32.68 31 31.36 31 30 C30.34 30 29.68 30 29 30 C27.68373308 26.38026598 27 23.90432869 27 20 C26.34 20 25.68 20 25 20 C22 14.375 22 14.375 22 11 C21.01 10.67 20.02 10.34 19 10 C19 8.68 19 7.36 19 6 C16.59855733 6.1957792 16.59855733 6.1957792 14 7 C13.525625 7.680625 13.05125 8.36125 12.5625 9.0625 C12.046875 9.701875 11.53125 10.34125 11 11 C7.87376745 11.31900332 5.82883747 11.41441874 3 10 C3 9.34 3 8.68 3 8 C2.34 8 1.68 8 1 8 C0.67 5.36 0.34 2.72 0 0 Z " fill="#C1A61F" transform="translate(340,337)"/>
<path d="M0 0 C2.64 0 5.28 0 8 0 C8.98397585 2.5607445 9.96229967 5.12341492 10.9375 7.6875 C11.21529297 8.40873047 11.49308594 9.12996094 11.77929688 9.87304688 C12.04677734 10.57880859 12.31425781 11.28457031 12.58984375 12.01171875 C12.83597412 12.65584717 13.08210449 13.29997559 13.33569336 13.96362305 C14.08317273 16.25495911 14.52732568 18.63662839 15 21 C15.33 14.07 15.66 7.14 16 0 C17.65 0 19.3 0 21 0 C21 9.9 21 19.8 21 30 C18.36 30 15.72 30 13 30 C10.36 22.08 7.72 14.16 5 6 C4.67 13.92 4.34 21.84 4 30 C2.68 30 1.36 30 0 30 C0 20.1 0 10.2 0 0 Z " fill="#CDCDCD" transform="translate(216,512)"/>
<path d="M0 0 C2.31 0 4.62 0 7 0 C7.96305013 2.6650444 8.92051716 5.33188751 9.875 8 C10.14441406 8.74378906 10.41382813 9.48757813 10.69140625 10.25390625 C12.89073428 16.42275315 15 22.38855344 15 29 C13.68 29 12.36 29 11 29 C9.5393715 26.35261084 9 25.10551666 9 22 C5.37 22.33 1.74 22.66 -2 23 C-2.66 24.98 -3.32 26.96 -4 29 C-5.65 29 -7.3 29 -9 29 C-9 27.68 -9 26.36 -9 25 C-8.34 25 -7.68 25 -7 25 C-6.89816406 23.865625 -6.79632813 22.73125 -6.69140625 21.5625 C-6.09328854 16.77755833 -4.61829299 12.50031348 -2.9375 8 C-2.65583984 7.22527344 -2.37417969 6.45054687 -2.08398438 5.65234375 C-1.39679702 3.76549033 -0.69945987 1.88233849 0 0 Z " fill="#C79444" transform="translate(162,512)"/>
<path d="M0 0 C0.87183426 -0.00671722 1.74366852 -0.01343445 2.641922 -0.02035522 C5.52834751 -0.0393772 8.41454107 -0.04326141 11.30102539 -0.04541016 C13.3049784 -0.05183472 15.30893046 -0.05856282 17.31288147 -0.06558228 C21.5152504 -0.07756523 25.71753706 -0.08126201 29.91992188 -0.08007812 C35.30831972 -0.07987478 40.69619108 -0.1071888 46.08446407 -0.14162254 C50.22370331 -0.16384402 54.36281483 -0.16791714 58.50210762 -0.16685867 C60.48886494 -0.16922135 62.47562543 -0.17808219 64.46232414 -0.19352341 C67.23958251 -0.21308911 70.01569244 -0.20738281 72.79296875 -0.1953125 C73.61544098 -0.20655151 74.43791321 -0.21779053 75.28530884 -0.22937012 C78.93998454 -0.18894621 81.03564945 -0.0284615 84.00294495 2.19589233 C85.46118164 4.29052734 85.46118164 4.29052734 85.46118164 6.29052734 C84.47118164 6.29052734 83.48118164 6.29052734 82.46118164 6.29052734 C81.96618164 4.80552734 81.96618164 4.80552734 81.46118164 3.29052734 C70.54348766 3.26739197 59.62579948 3.24960613 48.70808601 3.23871517 C43.63895936 3.23348897 38.56984944 3.22639606 33.50073242 3.21508789 C28.61189483 3.20424971 23.72307337 3.19824852 18.8342247 3.1956501 C16.96584697 3.19379754 15.09747016 3.19018013 13.22909927 3.18479729 C10.61910318 3.17757454 8.00917435 3.17653693 5.39916992 3.17700195 C4.62089844 3.17340668 3.84262695 3.1698114 3.04077148 3.16610718 C-0.8773455 3.09368548 -0.8773455 3.09368548 -4.53881836 4.29052734 C-4.53881836 3.63052734 -4.53881836 2.97052734 -4.53881836 2.29052734 C-5.85881836 3.28052734 -7.17881836 4.27052734 -8.53881836 5.29052734 C-6.82892644 10.99016707 -4.30208192 16.11046604 -1.42553711 21.29833984 C1.13313869 26.04352041 2.07641452 29.90378763 2.46118164 35.29052734 C3.12118164 35.29052734 3.78118164 35.29052734 4.46118164 35.29052734 C7.70161978 41.90745255 10.15157519 48.02816432 11.46118164 55.29052734 C9.19422891 53.02357461 8.36764347 51.09574897 7.08618164 48.16552734 C5.64984199 44.89437962 4.1627685 41.67133815 2.54711914 38.48583984 C-0.01170656 33.41033381 -2.26400153 28.20866274 -4.53881836 23.00146484 C-6.4738463 18.60229977 -8.50878965 14.30001763 -10.76171875 10.05371094 C-11.95468242 7.34696144 -12.02007078 5.17804185 -11.53881836 2.29052734 C-7.67740826 -0.28374605 -4.47850017 -0.00492323 0 0 Z " fill="#DA7019" transform="translate(180.538818359375,171.70947265625)"/>
<path d="M0 0 C1.74216797 0.04060547 1.74216797 0.04060547 3.51953125 0.08203125 C4.39996094 0.11683594 5.28039062 0.15164063 6.1875 0.1875 C6.1875 1.5075 6.1875 2.8275 6.1875 4.1875 C1.8975 4.1875 -2.3925 4.1875 -6.8125 4.1875 C-6.4825 11.1175 -6.1525 18.0475 -5.8125 25.1875 C-2.8425 25.5175 0.1275 25.8475 3.1875 26.1875 C3.1875 23.2175 3.1875 20.2475 3.1875 17.1875 C1.5375 17.1875 -0.1125 17.1875 -1.8125 17.1875 C-1.8125 16.1975 -1.8125 15.2075 -1.8125 14.1875 C1.1575 14.1875 4.1275 14.1875 7.1875 14.1875 C7.1875 19.1375 7.1875 24.0875 7.1875 29.1875 C4.980625 29.249375 2.77375 29.31125 0.5 29.375 C-1.36205078 29.42720703 -1.36205078 29.42720703 -3.26171875 29.48046875 C-9.16556265 28.99335292 -9.16556265 28.99335292 -11.8125 26.1875 C-12.57044586 22.34599302 -12.50881365 18.59073386 -12.4375 14.6875 C-12.45683594 13.62917969 -12.47617187 12.57085938 -12.49609375 11.48046875 C-12.44762061 3.85079601 -12.44762061 3.85079601 -9.69921875 0.98046875 C-6.3303671 0.05506025 -3.49214237 -0.1058225 0 0 Z " fill="#D0D0D0" transform="translate(532.8125,511.8125)"/>
<path d="M0 0 C0.99 0.66 1.98 1.32 3 2 C3.34057617 4.06298828 3.34057617 4.06298828 3.29296875 6.5703125 C3.28330078 7.46621094 3.27363281 8.36210938 3.26367188 9.28515625 C3.23853516 10.22230469 3.21339844 11.15945313 3.1875 12.125 C3.17396484 13.06988281 3.16042969 14.01476562 3.14648438 14.98828125 C3.11106306 17.32608779 3.06167271 19.66276237 3 22 C0.64653604 23.17673198 -0.8806033 23.16623866 -3.5 23.1875 C-4.2940625 23.20167969 -5.088125 23.21585938 -5.90625 23.23046875 C-8 23 -8 23 -10 21 C-10.4456098 17.85340068 -10.32411997 14.67457507 -10.3125 11.5 C-10.32861328 10.61957031 -10.34472656 9.73914063 -10.36132812 8.83203125 C-10.36197266 7.99027344 -10.36261719 7.14851562 -10.36328125 6.28125 C-10.36626221 5.50845703 -10.36924316 4.73566406 -10.37231445 3.93945312 C-10.24945068 3.29943359 -10.12658691 2.65941406 -10 2 C-6.31282562 -0.45811625 -4.35654296 -0.31118164 0 0 Z " fill="#282828" transform="translate(473,515)"/>
<path d="M0 0 C12.20426183 -0.02314385 24.40851846 -0.04092555 36.61279774 -0.05181217 C42.2793893 -0.05703651 47.94596589 -0.06412606 53.61254883 -0.07543945 C59.07845393 -0.08628422 64.5443446 -0.09228023 70.01025963 -0.09487724 C72.09830643 -0.09672861 74.18635241 -0.10034374 76.27439308 -0.10573006 C79.19311878 -0.11296152 82.1117844 -0.11399004 85.03051758 -0.11352539 C85.89870117 -0.11712067 86.76688477 -0.12071594 87.66137695 -0.12442017 C91.02626298 -0.11860221 93.7852094 -0.07159687 97 1 C98.32421875 3.37890625 98.32421875 3.37890625 99.6875 6.5625 C101.99335884 11.78644322 104.41625874 16.90807626 107 22 C115.70570635 39.27273408 115.70570635 39.27273408 118.625 47.3125 C119.9272971 50.80502404 121.45988063 53.96899308 123.23046875 57.23828125 C124 59 124 59 124 62 C124.66 62 125.32 62 126 62 C126 63.65 126 65.3 126 67 C126.66 67.33 127.32 67.66 128 68 C127.34 68.99 126.68 69.98 126 71 C123.11511775 65.38375474 120.5755855 59.71701254 118.1875 53.875 C115.20723243 46.66804289 111.96269778 39.69408528 108.34765625 32.78515625 C107.22827011 30.47175824 106.47745973 28.50817455 106 26 C105.34 26 104.68 26 104 26 C103.690625 24.4221875 103.690625 24.4221875 103.375 22.8125 C102.07080759 17.47106489 99.63200716 12.68610089 97.2421875 7.7578125 C96 5 96 5 96 3 C92.13157263 1.71052421 88.4763494 1.86072764 84.4453125 1.87060547 C83.57187195 1.86885315 82.6984314 1.86710083 81.79852295 1.86529541 C78.9073285 1.86088916 76.01619508 1.86381059 73.125 1.8671875 C71.11865222 1.86651411 69.11230453 1.86554379 67.10595703 1.86428833 C62.89940617 1.86281302 58.69287652 1.86496058 54.48632812 1.86962891 C49.08906363 1.87532609 43.69184885 1.87204619 38.29458618 1.86605644 C34.15111922 1.86244635 30.00766409 1.86359149 25.86419678 1.86618423 C23.87384027 1.86685226 21.8834827 1.86602941 19.89312744 1.86370468 C17.11361844 1.86117084 14.33419045 1.86502916 11.5546875 1.87060547 C10.72862 1.86858124 9.90255249 1.86655701 9.05145264 1.86447144 C5.7756842 1.87667266 3.12996856 1.95667715 0 3 C0 2.01 0 1.02 0 0 Z " fill="#583109" transform="translate(169,171)"/>
<path d="M0 0 C4.62 0 9.24 0 14 0 C14 0.99 14 1.98 14 3 C12.35 3 10.7 3 9 3 C9 10.59 9 18.18 9 26 C10.65 26 12.3 26 14 26 C14 26.99 14 27.98 14 29 C9.38 29 4.76 29 0 29 C0 28.01 0 27.02 0 26 C1.32 26 2.64 26 4 26 C4 18.74 4 11.48 4 4 C2.68 4 1.36 4 0 4 C0 2.68 0 1.36 0 0 Z " fill="#D4D4D4" transform="translate(341,512)"/>
<path d="M0 0 C1.65 0 3.3 0 5 0 C5 8.58 5 17.16 5 26 C8.96 26 12.92 26 17 26 C17 27.32 17 28.64 17 30 C11.39 30 5.78 30 0 30 C0 20.1 0 10.2 0 0 Z " fill="#D0D0D0" transform="translate(400,512)"/>
<path d="M0 0 C7.26 0 14.52 0 22 0 C22 0.99 22 1.98 22 3 C19.03 3 16.06 3 13 3 C13 11.58 13 20.16 13 29 C11.68 29 10.36 29 9 29 C9 20.42 9 11.84 9 3 C6.03 3 3.06 3 0 3 C0 2.01 0 1.02 0 0 Z " fill="#E8E8E8" transform="translate(276,512)"/>
<path d="M0 0 C2.31 0 4.62 0 7 0 C9.89451029 6.91322771 11.60669834 12.47694058 11 20 C10 21 10 21 7.27734375 21.09765625 C6.17519531 21.08605469 5.07304687 21.07445312 3.9375 21.0625 C2.28041016 21.04896484 2.28041016 21.04896484 0.58984375 21.03515625 C-0.26480469 21.02355469 -1.11945313 21.01195312 -2 21 C-2 20.34 -2 19.68 -2 19 C0.97 19 3.94 19 7 19 C6.7834375 18.25234375 6.566875 17.5046875 6.34375 16.734375 C6.0653125 15.74953125 5.786875 14.7646875 5.5 13.75 C5.2215625 12.77546875 4.943125 11.8009375 4.65625 10.796875 C4 8 4 8 4 4 C3.34 4 2.68 4 2 4 C1.90203125 4.77085937 1.8040625 5.54171875 1.703125 6.3359375 C1.55359375 7.33882812 1.4040625 8.34171875 1.25 9.375 C1.11078125 10.37273438 0.9715625 11.37046875 0.828125 12.3984375 C0 15 0 15 -2.078125 16.3515625 C-2.71234375 16.56554687 -3.3465625 16.77953125 -4 17 C-3.58411954 10.80481527 -2.39748106 5.73310689 0 0 Z " fill="#E0A54E" transform="translate(162,512)"/>
<path d="M0 0 C0.33 0 0.66 0 1 0 C1 1.65 1 3.3 1 5 C-8.02323797 5.02320072 -17.04646562 5.04095447 -26.06972694 5.05181217 C-30.25987428 5.0570241 -34.45000116 5.064091 -38.64013672 5.07543945 C-42.68609187 5.08632847 -46.73202738 5.09228957 -50.77799606 5.09487724 C-52.31930221 5.09672066 -53.86060731 5.10032037 -55.40190506 5.10573006 C-57.56564889 5.11302035 -59.72931222 5.11398758 -61.89306641 5.11352539 C-63.73839462 5.11685631 -63.73839462 5.11685631 -65.6210022 5.12025452 C-68.83712539 5.00579651 -71.84367429 4.60871646 -75 4 C-75 3.67 -75 3.34 -75 3 C-50.32584556 2.12682522 -25.68858315 1.87046913 -1 2 C-0.67 1.34 -0.34 0.68 0 0 Z " fill="#DEB914" transform="translate(396,445)"/>
<path d="M0 0 C2.2161896 2.77499958 3.77313696 5.4349756 5.1875 8.6875 C7.32595805 13.51503703 9.54727234 18.29377224 11.8125 23.0625 C15.02987904 29.85432078 18.10477751 36.70058385 21.12011719 43.58422852 C23.55932511 49.11508984 26.21516275 54.48030436 29.06640625 59.8125 C29.37449219 60.534375 29.68257813 61.25625 30 62 C29.67 62.66 29.34 63.32 29 64 C28.401875 63.0925 27.80375 62.185 27.1875 61.25 C25.14718226 58.12252644 25.14718226 58.12252644 23.25 55.8125 C22 54 22 54 22 51 C21.34 51 20.68 51 20 51 C19.608125 49.783125 19.21625 48.56625 18.8125 47.3125 C17.06573299 42.03860729 15.03552684 36.88606326 12.98828125 31.72265625 C12 29 12 29 12 27 C11.34 27 10.68 27 10 27 C9.01 24.03 8.02 21.06 7 18 C6.34 18 5.68 18 5 18 C4.15321949 16.13103445 3.32313789 14.25449819 2.5 12.375 C2.0359375 11.33085937 1.571875 10.28671875 1.09375 9.2109375 C-0.02767398 5.91875709 -0.207138 3.44884777 0 0 Z " fill="#BF951F" transform="translate(304,260)"/>
<path d="M0 0 C2.64 0 5.28 0 8 0 C8.125 2.875 8.125 2.875 8 6 C7.34 6.66 6.68 7.32 6 8 C5.67 7.34 5.34 6.68 5 6 C4.67 13.92 4.34 21.84 4 30 C2.68 30 1.36 30 0 30 C0 20.1 0 10.2 0 0 Z " fill="#DDDDDD" transform="translate(216,512)"/>
<path d="M0 0 C0.99 1.485 0.99 1.485 2 3 C2.61875 3.70125 3.2375 4.4025 3.875 5.125 C6.11993266 8.16226183 7.46463115 11.0609041 8.91796875 14.5234375 C10.44709398 18.02331257 12.24680574 21.37128423 14.046875 24.73828125 C15 27 15 27 15 31 C15.66 31 16.32 31 17 31 C18.41493114 33.82986229 18.2426377 35.85329235 18 39 C16.6875 41.9921875 16.6875 41.9921875 15 44.875 C14.443125 45.84179688 13.88625 46.80859375 13.3125 47.8046875 C12.879375 48.52914062 12.44625 49.25359375 12 50 C11.67 50 11.34 50 11 50 C11.75892857 43.54910714 11.75892857 43.54910714 13.125 40.4375 C14.99495259 35.22834635 12.65656797 31.11573612 10.4375 26.375 C9.98246094 25.45460938 9.52742188 24.53421875 9.05859375 23.5859375 C8 21 8 21 8 17 C7.34 17 6.68 17 6 17 C4.99063464 14.921188 3.99282154 12.8367638 3 10.75 C2.443125 9.58984375 1.88625 8.4296875 1.3125 7.234375 C0 4 0 4 0 0 Z " fill="#C6B01C" transform="translate(386,399)"/>
<path d="M0 0 C0.66 0 1.32 0 2 0 C1.67 2.64 1.34 5.28 1 8 C0.34 8 -0.32 8 -1 8 C-1 9.32 -1 10.64 -1 12 C0.65 12 2.3 12 4 12 C4.144375 11.030625 4.28875 10.06125 4.4375 9.0625 C5 6 5 6 6 5 C7.85287502 4.92773498 9.70833878 4.9161878 11.5625 4.9375 C12.57441406 4.94652344 13.58632812 4.95554687 14.62890625 4.96484375 C15.80259766 4.98224609 15.80259766 4.98224609 17 5 C17.66 7.31 18.32 9.62 19 12 C20.32 12 21.64 12 23 12 C22.67 10.948125 22.34 9.89625 22 8.8125 C21.16033218 5.61126643 20.80249096 3.2588992 21 0 C22.48828125 1.14453125 22.48828125 1.14453125 24 3 C24.29296875 5.69921875 24.29296875 5.69921875 24.1875 8.6875 C24.16042969 9.68136719 24.13335937 10.67523437 24.10546875 11.69921875 C24.07066406 12.45847656 24.03585938 13.21773437 24 14 C22.02 14 20.04 14 18 14 C17.690625 13.030625 17.38125 12.06125 17.0625 11.0625 C15.37918483 7.85054552 15.37918483 7.85054552 12.796875 7.37890625 C10.52061916 7.14627004 8.28756601 7.00959147 6 7 C6.20625 7.78375 6.4125 8.5675 6.625 9.375 C6.74875 10.24125 6.8725 11.1075 7 12 C5 14 5 14 1.375 14.125 C0.26125 14.08375 -0.8525 14.0425 -2 14 C-2.3690205 4.58997722 -2.3690205 4.58997722 0 0 Z " fill="#493315" transform="translate(154,529)"/>
<path d="M0 0 C0.99 0.33 1.98 0.66 3 1 C3.73046875 2.84765625 3.73046875 2.84765625 4.1875 5.0625 C4.34605469 5.79597656 4.50460938 6.52945312 4.66796875 7.28515625 C4.83232422 8.13400391 4.83232422 8.13400391 5 9 C5.66 9 6.32 9 7 9 C10.06802099 14.62470514 11.89061647 19.69403048 13 26 C13.66 26 14.32 26 15 26 C15.24234375 26.6290625 15.4846875 27.258125 15.734375 27.90625 C17.39886518 32.15710184 19.09392197 36.28525426 21.25 40.3125 C22.81910352 43.33425013 23.43301986 45.53584114 23 49 C20.50890187 45.9317853 18.91043273 42.8579398 17.3125 39.25 C14.94991691 34.01814518 12.4649977 28.87278783 9.875 23.75 C2.13905415 8.3779621 2.13905415 8.3779621 0 0 Z " fill="#E08017" transform="translate(218,283)"/>
<path d="M0 0 C11.66539149 -0.09262748 23.33069568 -0.16372827 34.99637985 -0.20724869 C40.41308316 -0.22813499 45.82953511 -0.25647193 51.24609375 -0.30175781 C56.47212448 -0.34517797 61.69791324 -0.36912925 66.92411041 -0.37950897 C68.91926127 -0.3869072 70.9143987 -0.40135404 72.90944672 -0.42292023 C75.70131686 -0.4519032 78.49218363 -0.45595813 81.28417969 -0.45410156 C82.52495773 -0.47567322 82.52495773 -0.47567322 83.790802 -0.49768066 C87.45825155 -0.47124284 89.56399794 -0.32611528 92.54473877 1.90338135 C94 4 94 4 94 6 C93.01 6 92.02 6 91 6 C90.505 4.515 90.505 4.515 90 3 C86.04629658 1.53472831 81.81634808 1.82502963 77.65136719 1.79467773 C76.81197601 1.78477814 75.97258484 1.77487854 75.10775757 1.76467896 C72.33749192 1.73313002 69.56720914 1.70833265 66.796875 1.68359375 C64.87444619 1.66301852 62.95202184 1.6420219 61.02960205 1.62062073 C55.97277445 1.56545884 50.91590643 1.51602361 45.85900879 1.46777344 C40.69763597 1.41751546 35.53632179 1.36185182 30.375 1.30664062 C20.2500501 1.19913101 10.12504927 1.09767005 0 1 C0 0.67 0 0.34 0 0 Z " fill="#C7741B" transform="translate(172,172)"/>
<path d="M0 0 C2.69275838 3.09667214 4.10911919 6.40266079 5.70703125 10.125 C7.32475457 13.72211288 9.09540808 17.23084448 10.875 20.75 C20.88613144 40.62270349 20.88613144 40.62270349 22 46 C19 45 19 45 17 42 C16.875 39.3125 16.875 39.3125 17 37 C16.34 37 15.68 37 15 37 C15 36.34 15 35.68 15 35 C14.34 35 13.68 35 13 35 C12.74476563 34.18208984 12.74476563 34.18208984 12.484375 33.34765625 C10.88508091 28.37112944 9.02611442 23.66131777 6.76953125 18.9453125 C6 17 6 17 6 14 C5.34 14 4.68 14 4 14 C3.79503906 13.43410156 3.59007812 12.86820312 3.37890625 12.28515625 C3.10949219 11.55167969 2.84007812 10.81820313 2.5625 10.0625 C2.29566406 9.33160156 2.02882812 8.60070312 1.75390625 7.84765625 C1.14613052 6.01694322 1.14613052 6.01694322 0 5 C-0.04063832 3.33382885 -0.042721 1.66611905 0 0 Z " fill="#522D08" transform="translate(214,277)"/>
<path d="M0 0 C3 1 3 1 4.3515625 3.58203125 C4.98191406 5.18111328 4.98191406 5.18111328 5.625 6.8125 C6.05039062 7.87082031 6.47578125 8.92914063 6.9140625 10.01953125 C8 13 8 13 8.5234375 15.32421875 C8.68070312 15.87722656 8.83796875 16.43023437 9 17 C9.66 17.33 10.32 17.66 11 18 C11 18.66 11 19.32 11 20 C11.98226563 20.03758423 11.98226563 20.03758423 12.984375 20.07592773 C15.98973236 20.19292655 18.99485485 20.31517635 22 20.4375 C23.02996094 20.47681641 24.05992187 20.51613281 25.12109375 20.55664062 C30.80241075 20.79185439 36.37046268 21.19481377 42 22 C42 22.33 42 22.66 42 23 C37.80079763 23.04953687 33.60175131 23.08578411 29.40234375 23.10986328 C27.97457922 23.11990427 26.54683517 23.13353981 25.11914062 23.15087891 C23.06375059 23.17521152 21.00863308 23.18650202 18.953125 23.1953125 C17.09929199 23.21102295 17.09929199 23.21102295 15.20800781 23.22705078 C12.16612542 23.01175773 10.49301557 22.70240994 8 21 C7.09375 19.08203125 7.09375 19.08203125 6.5 16.8125 C5.58357266 13.67549871 4.57967578 11.04002691 2.875 8.25 C1.18836741 5.3265035 0.40087086 3.30718459 0 0 Z " fill="#DAA117" transform="translate(285,427)"/>
<path d="M0 0 C28.71 0 57.42 0 87 0 C87 0.66 87 1.32 87 2 C85.50329269 1.99666908 85.50329269 1.99666908 83.97634888 1.99327087 C74.58807343 1.9730281 65.19980238 1.95802236 55.81151009 1.94818783 C50.98451963 1.9429619 46.15754675 1.93586948 41.33056641 1.92456055 C36.67514752 1.9137214 32.01974556 1.90772097 27.36431503 1.90512276 C25.58525196 1.90327037 23.80618984 1.8996533 22.02713394 1.89426994 C19.54166893 1.88704591 17.05627454 1.88600964 14.57080078 1.88647461 C13.82993225 1.88287933 13.08906372 1.87928406 12.32574463 1.87557983 C8.53707956 1.81994805 8.53707956 1.81994805 5 3 C5 2.34 5 1.68 5 1 C4.38125 1.495 3.7625 1.99 3.125 2.5 C1 4 1 4 -1 4 C-0.67 2.68 -0.34 1.36 0 0 Z " fill="#EB8211" transform="translate(171,173)"/>
<path d="M0 0 C0.66 0 1.32 0 2 0 C2 0.66 2 1.32 2 2 C2.66 2 3.32 2 4 2 C4.33 4.64 4.66 7.28 5 10 C5.66 10 6.32 10 7 10 C7.66 11.32 8.32 12.64 9 14 C9.99 13.67 10.98 13.34 12 13 C12.12375 14.670625 12.12375 14.670625 12.25 16.375 C12.67227226 19.92965009 13.65356638 22.83914775 15.0625 26.125 C16.68647222 29.9240397 17.44137465 32.80694082 17 37 C14.33843425 35.66921713 14.31126201 34.58282176 13.3125 31.8125 C11.62693776 27.39973592 9.65272933 23.19987677 7.5 19 C0 4.28953674 0 4.28953674 0 0 Z " fill="#CF811D" transform="translate(241,332)"/>
<path d="M0 0 C2.43381573 0.9636876 3.73675352 1.54327158 5.06494141 3.84765625 C5.32452637 4.57855469 5.58411133 5.30945313 5.8515625 6.0625 C6.14546875 6.85914063 6.439375 7.65578125 6.7421875 8.4765625 C7.03351563 9.30929688 7.32484375 10.14203125 7.625 11 C8.21667896 12.64751985 8.81283669 14.29344003 9.4140625 15.9375 C9.80005615 17.03384766 9.80005615 17.03384766 10.19384766 18.15234375 C10.95094437 20.19449711 10.95094437 20.19449711 13 22 C13.79544282 23.95347266 14.51614689 25.93798263 15.1875 27.9375 C15.55230469 28.99839844 15.91710937 30.05929687 16.29296875 31.15234375 C17 34 17 34 16 37 C15.22377806 35.5027814 14.4543539 34.00203832 13.6875 32.5 C13.25824219 31.6646875 12.82898438 30.829375 12.38671875 29.96875 C11.32834784 27.70294184 10.43819778 25.51967808 9.59375 23.17578125 C7.72647779 18.08037415 5.21331961 13.35911568 2.69726562 8.56054688 C0 3.31113752 0 3.31113752 0 0 Z " fill="#D17319" transform="translate(201,246)"/>
<path d="M0 0 C0.66 0 1.32 0 2 0 C2.508783 1.55966218 3.00663469 3.12289241 3.5 4.6875 C3.7784375 5.55761719 4.056875 6.42773438 4.34375 7.32421875 C4.99850805 9.99391677 5.11831495 12.26396684 5 15 C2.36 15 -0.28 15 -3 15 C-2.5547115 9.72684667 -1.91626837 4.98229776 0 0 Z " fill="#38260E" transform="translate(164,516)"/>
<path d="M0 0 C3 1 3 1 4.31640625 3.36328125 C4.72761719 4.33652344 5.13882812 5.30976563 5.5625 6.3125 C5.97628906 7.27800781 6.39007813 8.24351562 6.81640625 9.23828125 C7.20699219 10.14964844 7.59757812 11.06101562 8 12 C8.37511719 12.71285156 8.75023437 13.42570312 9.13671875 14.16015625 C10.39670558 16.84546755 10.25380045 19.08129479 10 22 C9.34 22.66 8.68 23.32 8 24 C8 24.825 8 25.65 8 26.5 C8 27.325 8 28.15 8 29 C7.34 29.66 6.68 30.32 6 31 C5.01 31 4.02 31 3 31 C4.05875074 27.59687262 5.00902154 24.98646769 7 22 C7.24055468 19.94290404 7.24055468 19.94290404 7.125 17.8125 C7.063125 15.9253125 7.063125 15.9253125 7 14 C6.34 14 5.68 14 5 14 C2.92373687 9.37559575 1.29977048 4.8991349 0 0 Z " fill="#372E0A" transform="translate(396,416)"/>
<path d="M0 0 C2.97 0 5.94 0 9 0 C9 4.62 9 9.24 9 14 C7.02 14 5.04 14 3 14 C3.66 13.67 4.32 13.34 5 13 C5 9.7 5 6.4 5 3 C3.35 3 1.7 3 0 3 C0 2.01 0 1.02 0 0 Z " fill="#E4E4E4" transform="translate(531,526)"/>
<path d="M0 0 C2.97932935 3.48930465 4.54739251 7.39716735 6.1875 11.625 C6.46013672 12.305625 6.73277344 12.98625 7.01367188 13.6875 C9 18.72550517 9 18.72550517 9 21 C9.66 21 10.32 21 11 21 C14.07692308 26.41538462 14.07692308 26.41538462 13.6875 29.375 C13.3471875 30.179375 13.3471875 30.179375 13 31 C12.34 30.67 11.68 30.34 11 30 C11 28.35 11 26.7 11 25 C10.01 24.67 9.02 24.34 8 24 C6.97265625 22.06640625 6.97265625 22.06640625 6.0625 19.5625 C5.72863281 18.66402344 5.39476562 17.76554687 5.05078125 16.83984375 C4.70402344 15.90269531 4.35726563 14.96554687 4 14 C2.91873661 11.40570594 1.83032254 8.81468476 0.734375 6.2265625 C0 4 0 4 0 0 Z " fill="#3A2406" transform="translate(266,388)"/>
<path d="M0 0 C2.15377564 2.62198774 3.40072174 4.64404172 4 8 C4.66 8 5.32 8 6 8 C7.17112946 10.62309099 8.33705964 13.24828142 9.5 15.875 C9.83386719 16.62136719 10.16773438 17.36773437 10.51171875 18.13671875 C10.82753906 18.85214844 11.14335937 19.56757813 11.46875 20.3046875 C11.76201172 20.96452637 12.05527344 21.62436523 12.35742188 22.30419922 C13 24 13 24 13 26 C12.01 26 11.02 26 10 26 C9.75765625 25.443125 9.5153125 24.88625 9.265625 24.3125 C7.55248905 20.41182123 5.80369823 16.54939051 3.875 12.75 C1.6480137 8.33109805 0 5.04690677 0 0 Z " fill="#C8921D" transform="translate(291,234)"/>
<path d="M0 0 C1.98 0 3.96 0 6 0 C6.33 1.98 6.66 3.96 7 6 C6.34 5.67 5.68 5.34 5 5 C5 3.68 5 2.36 5 1 C4.01 1 3.02 1 2 1 C1.855625 2.216875 1.71125 3.43375 1.5625 4.6875 C1.46710938 5.41582031 1.37171875 6.14414062 1.2734375 6.89453125 C1.05815377 8.55221598 0.86813235 10.21318241 0.6875 11.875 C0 14 0 14 -2.04296875 15.1328125 C-2.68878906 15.41898438 -3.33460938 15.70515625 -4 16 C-3.6083965 10.04492601 -2.62875405 5.37180176 0 0 Z " fill="#E3AA53" transform="translate(162,513)"/>
<path d="M0 0 C5.33722527 0.56181319 5.33722527 0.56181319 7.5625 2.375 C9.23033878 6.12763725 9.80295528 9.28726018 9.5625 13.375 C6.98361073 12.08555537 6.84814619 10.991859 5.75 8.375 C4.22599826 4.98612808 4.22599826 4.98612808 0.9375 3.375 C0.15375 3.375 -0.63 3.375 -1.4375 3.375 C-2.0975 3.375 -2.7575 3.375 -3.4375 3.375 C-4.0975 4.695 -4.7575 6.015 -5.4375 7.375 C-6.4375 4.375 -6.4375 4.375 -5.4375 2.1875 C-3.4375 0.375 -3.4375 0.375 0 0 Z " fill="#352B09" transform="translate(356.4375,337.625)"/>
<path d="M0 0 C2.93679391 2.93679391 3.62107268 6.47540721 4.90234375 10.37109375 C6.00283493 13.00678971 7.00882036 14.05096173 9 16 C9.94921875 18.26171875 9.94921875 18.26171875 10.6875 20.6875 C11.06455078 21.89986328 11.06455078 21.89986328 11.44921875 23.13671875 C11.63097656 23.75160156 11.81273437 24.36648438 12 25 C7.16907776 22.52260398 7.16907776 22.52260398 6.3125 19.875 C6.209375 19.25625 6.10625 18.6375 6 18 C5.34 17.67 4.68 17.34 4 17 C3.31060191 14.67328146 2.64533078 12.33932406 2 10 C1.34 9.01 0.68 8.02 0 7 C-0.07905064 4.66800612 -0.08798769 2.33167378 0 0 Z " fill="#472A09" transform="translate(254,362)"/>
<path d="M0 0 C1.90747183 2.86120775 3.00353706 5.35254993 4.1875 8.5625 C4.55230469 9.53316406 4.91710937 10.50382813 5.29296875 11.50390625 C6 14 6 14 5 16 C4.34 15.34 3.68 14.68 3 14 C2.01 15.485 2.01 15.485 1 17 C-2.25601751 7.1619256 -2.25601751 7.1619256 -1.1875 2.3125 C-0.795625 1.549375 -0.40375 0.78625 0 0 Z " fill="#C5C5C5" transform="translate(224,514)"/>
<path d="M0 0 C3 1 3 1 4.16796875 2.70703125 C4.50441406 3.40183594 4.84085937 4.09664063 5.1875 4.8125 C5.53167969 5.49957031 5.87585938 6.18664062 6.23046875 6.89453125 C7 9 7 9 7 13 C7.66 13 8.32 13 9 13 C10.85776765 16.13498292 11.20140476 18.37471432 11 22 C10.34 20.68 9.68 19.36 9 18 C8.34 18 7.68 18 7 18 C5.83121737 15.18836219 4.66488052 12.37575392 3.5 9.5625 C2.99919922 8.35883789 2.99919922 8.35883789 2.48828125 7.13085938 C2.01455078 5.98520508 2.01455078 5.98520508 1.53125 4.81640625 C1.23798828 4.10943604 0.94472656 3.40246582 0.64257812 2.67407227 C0 1 0 1 0 0 Z " fill="#C3841B" transform="translate(268,391)"/>
<path d="M0 0 C1.83984375 0.14453125 1.83984375 0.14453125 4 1 C5.37890625 3.51171875 5.37890625 3.51171875 6.5625 6.6875 C7.86063434 10.06905983 9.12065769 13.22883354 10.8125 16.4375 C12.08908898 19.19224464 12.26463133 21.00084488 12 24 C9.64917788 21.10357159 8.16480594 18.34643669 6.8125 14.875 C6.46832031 14.00617188 6.12414062 13.13734375 5.76953125 12.2421875 C5 10 5 10 5 8 C4.34 8 3.68 8 3 8 C0 2.25 0 2.25 0 0 Z " fill="#312906" transform="translate(380,383)"/>
<path d="M0 0 C2 1 2 1 3.10546875 3.87109375 C3.46253906 5.04800781 3.81960937 6.22492187 4.1875 7.4375 C4.55230469 8.61183594 4.91710937 9.78617188 5.29296875 10.99609375 C6 14 6 14 5 16 C4.67 14.68 4.34 13.36 4 12 C3.01 12.495 3.01 12.495 2 13 C1.5316735 15.58605332 1.5316735 15.58605332 1.375 18.5625 C1.30023438 19.57441406 1.22546875 20.58632813 1.1484375 21.62890625 C1.09945312 22.41136719 1.05046875 23.19382812 1 24 C0.67 24 0.34 24 0 24 C0 16.08 0 8.16 0 0 Z " fill="#5B5B5B" transform="translate(220,517)"/>
<path d="M0 0 C0.99 0.66 1.98 1.32 3 2 C3.38818359 4.10717773 3.38818359 4.10717773 3.3984375 6.68359375 C3.40230469 7.61107422 3.40617187 8.53855469 3.41015625 9.49414062 C3.39855469 10.46544922 3.38695312 11.43675781 3.375 12.4375 C3.38660156 13.40494141 3.39820313 14.37238281 3.41015625 15.36914062 C3.40628906 16.29791016 3.40242188 17.22667969 3.3984375 18.18359375 C3.39336182 19.46061157 3.39336182 19.46061157 3.38818359 20.76342773 C2.9197562 23.46233549 2.17025157 24.37380142 0 26 C-0.66 26 -1.32 26 -2 26 C-2 25.34 -2 24.68 -2 24 C-1.34 24 -0.68 24 0 24 C0 16.08 0 8.16 0 0 Z " fill="#BBBBBB" transform="translate(478,514)"/>
<path d="M0 0 C2.7972908 2.06756277 3.02692273 3.14440371 3.6875 6.6875 C3.790625 7.780625 3.89375 8.87375 4 10 C4.66 10 5.32 10 6 10 C6 10.66 6 11.32 6 12 C6.99 12.66 7.98 13.32 9 14 C6.69 14 4.38 14 2 14 C-0.19790854 9.42102388 -1.49432386 6.19040052 -1 1 C-0.67 0.67 -0.34 0.34 0 0 Z " fill="#DFDFDF" transform="translate(227,527)"/>
<path d="M0 0 C0.33 0.66 0.66 1.32 1 2 C1.99 2.33 2.98 2.66 4 3 C4.80859375 4.75 4.80859375 4.75 5.4375 7 C6.90613747 11.86681461 8.85618621 16.39678562 11 21 C11.33 21 11.66 21 12 21 C12 22.98 12 24.96 12 27 C8.56234911 22.67652856 6.54847378 17.95506795 4.3125 12.9375 C3.68891602 11.57141602 3.68891602 11.57141602 3.05273438 10.17773438 C2.46395508 8.86579102 2.46395508 8.86579102 1.86328125 7.52734375 C1.50532471 6.73062256 1.14736816 5.93390137 0.77856445 5.11303711 C0 3 0 3 0 0 Z " fill="#3A2A07" transform="translate(318,287)"/>
<path d="M0 0 C2.31 0 4.62 0 7 0 C7.69670416 1.78810766 8.38211189 3.58062052 9.0625 5.375 C9.44535156 6.37273438 9.82820312 7.37046875 10.22265625 8.3984375 C11 11 11 11 10 13 C9.67 12.01 9.34 11.02 9 10 C8.34 10 7.68 10 7 10 C6.67 11.32 6.34 12.64 6 14 C4.68373308 10.38026598 4 7.90432869 4 4 C3.34 4 2.68 4 2 4 C2 3.34 2 2.68 2 2 C2.99 2 3.98 2 5 2 C5.33 2.66 5.66 3.32 6 4 C6 3.01 6 2.02 6 1 C4.02 1 2.04 1 0 1 C0 0.67 0 0.34 0 0 Z " fill="#C29043" transform="translate(162,512)"/>
<path d="M0 0 C0.66 0 1.32 0 2 0 C2.0825 1.11375 2.165 2.2275 2.25 3.375 C2.67227226 6.92965009 3.65356638 9.83914775 5.0625 13.125 C6.68647222 16.9240397 7.44137465 19.80694082 7 24 C5 23 5 23 4 20.234375 C3.67 19.08453125 3.34 17.9346875 3 16.75 C1.60756592 11.93833332 1.60756592 11.93833332 -0.1484375 7.25390625 C-1.20257067 4.46383819 -0.80700775 2.82452712 0 0 Z " fill="#EA8B0D" transform="translate(251,345)"/>
<path d="M0 0 C2.39127864 2.98033262 4.08644212 5.97094525 5.6875 9.4375 C6.12449219 10.36433594 6.56148438 11.29117187 7.01171875 12.24609375 C8.01511167 15.0421096 8.19756379 17.05790136 8 20 C7.67 19.34 7.34 18.68 7 18 C6.34 18 5.68 18 5 18 C4.15321949 16.13103445 3.32313789 14.25449819 2.5 12.375 C2.0359375 11.33085937 1.571875 10.28671875 1.09375 9.2109375 C-0.02767398 5.91875709 -0.207138 3.44884777 0 0 Z " fill="#C3921D" transform="translate(304,260)"/>
<path d="M0 0 C2.24616853 2.84383325 3.99900939 5.70048189 5.625 8.9375 C6.05039063 9.77152344 6.47578125 10.60554687 6.9140625 11.46484375 C7.99404976 13.98610897 8.56517919 16.29927965 9 19 C8.34 18.67 7.68 18.34 7 18 C7 17.34 7 16.68 7 16 C6.34 16 5.68 16 5 16 C1.38979123 10.73511221 -0.2979395 6.4056993 0 0 Z " fill="#532909" transform="translate(182,208)"/>
<path d="M0 0 C0.66 0 1.32 0 2 0 C2.38671875 0.845625 2.7734375 1.69125 3.171875 2.5625 C3.95304687 4.2640625 3.95304687 4.2640625 4.75 6 C5.29269531 7.18335938 5.83539063 8.36671875 6.39453125 9.5859375 C7.67651106 12.31209408 9.01989741 14.96886041 10.4375 17.625 C12 21 12 21 11 24 C5.04296875 12.0859375 5.04296875 12.0859375 3.99755859 9.98730469 C3.09263065 8.18453586 2.16662702 6.39238471 1.23828125 4.6015625 C0 2 0 2 0 0 Z " fill="#351F05" transform="translate(264,172)"/>
<path d="M0 0 C1.95803507 -0.05389087 3.91648909 -0.09274217 5.875 -0.125 C7.51082031 -0.15980469 7.51082031 -0.15980469 9.1796875 -0.1953125 C12 0 12 0 14 2 C13.01 3.485 13.01 3.485 12 5 C11.34 4.67 10.68 4.34 10 4 C8.45976004 3.93049459 6.91665012 3.91547643 5.375 3.9375 C4.55773437 3.94652344 3.74046875 3.95554687 2.8984375 3.96484375 C2.27195312 3.97644531 1.64546875 3.98804688 1 4 C0.67 2.68 0.34 1.36 0 0 Z " fill="#D0D0D0" transform="translate(463,512)"/>
<path d="M0 0 C0.33 0 0.66 0 1 0 C1.125 7.625 1.125 7.625 0 11 C-1.65 11 -3.3 11 -5 11 C-5 9.68 -5 8.36 -5 7 C-4.34 7 -3.68 7 -3 7 C-2.87625 6.401875 -2.7525 5.80375 -2.625 5.1875 C-2 3 -2 3 0 0 Z " fill="#D9A34C" transform="translate(158,530)"/>
<path d="M0 0 C3 1 3 1 4.31640625 3.40625 C6.80152726 9.57620561 8.79975422 15.45320481 10 22 C8 21 8 21 7.2890625 19.1796875 C6.96035156 18.03886719 6.96035156 18.03886719 6.625 16.875 C5.65154211 13.74602821 4.57726147 11.05009676 2.875 8.25 C1.18836741 5.3265035 0.40087086 3.30718459 0 0 Z " fill="#AF7E20" transform="translate(285,427)"/>
<path d="M0 0 C2.55993768 2.55993768 3.61847135 5.21038188 5.125 8.5 C5.93324219 10.24796875 5.93324219 10.24796875 6.7578125 12.03125 C8 15 8 15 8 17 C7.01 16.67 6.02 16.34 5 16 C4.67 14.02 4.34 12.04 4 10 C3.34 10 2.68 10 2 10 C-0.09350689 6.5980513 -0.17942163 3.94727588 0 0 Z " fill="#AE851C" transform="translate(312,277)"/>
<path d="M0 0 C3.72007056 4.11864955 8 10.20736961 8 16 C7.01 16 6.02 16 5 16 C4.80664062 15.45730469 4.61328125 14.91460937 4.4140625 14.35546875 C4.15367187 13.64003906 3.89328125 12.92460937 3.625 12.1875 C3.36976563 11.47980469 3.11453125 10.77210938 2.8515625 10.04296875 C1.9734231 7.75226641 1.9734231 7.75226641 0 5 C-0.125 2.3125 -0.125 2.3125 0 0 Z " fill="#BC8219" transform="translate(277,203)"/>
<path d="M0 0 C4.01008855 4.29652344 8 10.92336048 8 17 C7.01 17 6.02 17 5 17 C3 9.375 3 9.375 3 6 C2.01 5.67 1.02 5.34 0 5 C0 3.35 0 1.7 0 0 Z " fill="#4A2708" transform="translate(206,260)"/>
<path d="M0 0 C2.55993768 2.55993768 3.61847135 5.21038188 5.125 8.5 C5.93324219 10.24796875 5.93324219 10.24796875 6.7578125 12.03125 C8 15 8 15 8 17 C5.48318834 16.02441115 4.25231194 15.48708869 2.98828125 13.046875 C2.76527344 12.28890625 2.54226562 11.5309375 2.3125 10.75 C2.0753125 9.95207031 1.838125 9.15414062 1.59375 8.33203125 C0.89095906 5.57172737 0.36221651 2.82528879 0 0 Z " fill="#502807" transform="translate(191,227)"/>
<path d="M0 0 C3 1 3 1 4.640625 4.2734375 C5.18882687 5.63595866 5.72482909 7.00343713 6.25 8.375 C6.53101563 9.06078125 6.81203125 9.7465625 7.1015625 10.453125 C9.12917132 15.61248605 9.12917132 15.61248605 8 19 C5.08883742 12.74042512 2.33015139 6.49989597 0 0 Z " fill="#392A05" transform="translate(335,325)"/>
<path d="M0 0 C0.99 0.33 1.98 0.66 3 1 C4.07116258 3.32771869 4.94074213 5.52169766 5.75 7.9375 C5.98332031 8.58396484 6.21664062 9.23042969 6.45703125 9.89648438 C7.03939691 11.57558057 7.52658707 13.2869927 8 15 C7.67 15.66 7.34 16.32 7 17 C4.05966587 11.42234327 1.46987086 6.14673271 0 0 Z " fill="#C06F1B" transform="translate(218,283)"/>
<path d="M0 0 C5.79268293 4.26829268 5.79268293 4.26829268 7 8 C7.125 11.25 7.125 11.25 7 14 C2 7.40909091 2 7.40909091 2 4 C1.34 4 0.68 4 0 4 C0 2.68 0 1.36 0 0 Z " fill="#593A0D" transform="translate(273,193)"/>
<path d="M0 0 C2.33697029 2.33697029 3.27094054 4.49097899 4.625 7.5 C5.29402344 8.96953125 5.29402344 8.96953125 5.9765625 10.46875 C7 13 7 13 7 15 C6.01 15 5.02 15 4 15 C3.32532438 13.25307205 2.66055844 11.50231475 2 9.75 C1.62875 8.77546875 1.2575 7.8009375 0.875 6.796875 C0 4 0 4 0 0 Z " fill="#B5791E" transform="translate(266,178)"/>
<path d="M0 0 C3 1 3 1 4.38671875 3.109375 C4.81597656 3.98078125 5.24523437 4.8521875 5.6875 5.75 C6.12449219 6.61109375 6.56148437 7.4721875 7.01171875 8.359375 C8.04127438 11.11028252 8.19360389 13.09070905 8 16 C5.70351643 13.10414095 3.95652443 10.1827969 2.3125 6.875 C1.65701172 5.57175781 1.65701172 5.57175781 0.98828125 4.2421875 C0 2 0 2 0 0 Z " fill="#CE7D1D" transform="translate(233,316)"/>
<path d="M0 0 C3 1 3 1 4.6875 4.1875 C6.01535157 7.5347925 6.26451861 10.38491227 6 14 C5.71382813 13.42507813 5.42765625 12.85015625 5.1328125 12.2578125 C4.40683342 10.8108611 3.6731345 9.36774192 2.9296875 7.9296875 C2.58164062 7.25164062 2.23359375 6.57359375 1.875 5.875 C1.52179688 5.19179688 1.16859375 4.50859375 0.8046875 3.8046875 C0 2 0 2 0 0 Z " fill="#413809" transform="translate(396,416)"/>
<path d="M0 0 C3.01330093 2.00886729 4.8128324 3.53742783 6 7 C6.125 10.25 6.125 10.25 6 13 C3.49701566 10.06171403 2.53069061 7.82097239 2 4 C1.01 3.67 0.02 3.34 -1 3 C-0.67 2.01 -0.34 1.02 0 0 Z " fill="#CCAE1C" transform="translate(360,344)"/>
<path d="M0 0 C1.98 0 3.96 0 6 0 C6.625 2.375 6.625 2.375 7 5 C6.34 5.66 5.68 6.32 5 7 C4.67 5.68 4.34 4.36 4 3 C3.01 3.33 2.02 3.66 1 4 C0.67 2.68 0.34 1.36 0 0 Z " fill="#ECECEC" transform="translate(217,513)"/>
<path d="M0 0 C2.12161334 2.12161334 2.92986249 3.7733159 4.125 6.5 C4.47820312 7.2940625 4.83140625 8.088125 5.1953125 8.90625 C6 11 6 11 6 13 C5.01 13 4.02 13 3 13 C2.690625 12.195625 2.38125 11.39125 2.0625 10.5625 C1.23664655 8.10919595 1.23664655 8.10919595 0 7 C-0.04092937 4.66702567 -0.04241723 2.33294775 0 0 Z " fill="#472806" transform="translate(248,349)"/>
<path d="M0 0 C3.23501466 3.72026686 5.57417568 8.29146387 7 13 C6.609375 15.28125 6.609375 15.28125 6 17 C6 16.01 6 15.02 6 14 C5.34 14 4.68 14 4 14 C3.79503906 13.43410156 3.59007812 12.86820312 3.37890625 12.28515625 C3.10949219 11.55167969 2.84007812 10.81820313 2.5625 10.0625 C2.29566406 9.33160156 2.02882812 8.60070312 1.75390625 7.84765625 C1.14613052 6.01694322 1.14613052 6.01694322 0 5 C-0.04063832 3.33382885 -0.042721 1.66611905 0 0 Z " fill="#442205" transform="translate(214,277)"/>
<path d="M0 0 C0.66 0 1.32 0 2 0 C4.42857143 6.28571429 4.42857143 6.28571429 3 10 C2.67 8.68 2.34 7.36 2 6 C-0.33075929 6.95865509 -0.33075929 6.95865509 -2 10 C-1.54177532 6.53058454 -1.10868317 3.32604951 0 0 Z " fill="#674615" transform="translate(164,516)"/>
<path d="M0 0 C3.42931954 3.7559214 4.56429083 8.23466745 6 13 C3 12 3 12 1 9 C0.5859375 6.73828125 0.5859375 6.73828125 0.375 4.3125 C0.30023438 3.50425781 0.22546875 2.69601562 0.1484375 1.86328125 C0.09945313 1.24839844 0.05046875 0.63351562 0 0 Z " fill="#B1901E" transform="translate(334,324)"/>
<path d="M0 0 C2.25597827 2.25597827 2.96574192 4.04603867 4.125 7 C4.47820312 7.886875 4.83140625 8.77375 5.1953125 9.6875 C6 12 6 12 6 14 C5.34 14 4.68 14 4 14 C3.67 12.68 3.34 11.36 3 10 C2.34 10 1.68 10 1 10 C0.67 6.7 0.34 3.4 0 0 Z " fill="#C08A1F" transform="translate(285,219)"/>
<path d="M0 0 C5.61 0 11.22 0 17 0 C17 0.33 17 0.66 17 1 C15.95199219 1.09087891 15.95199219 1.09087891 14.8828125 1.18359375 C13.97273437 1.26738281 13.06265625 1.35117188 12.125 1.4375 C11.22007812 1.51871094 10.31515625 1.59992188 9.3828125 1.68359375 C6.98889139 1.86989285 6.98889139 1.86989285 5 3 C5 2.34 5 1.68 5 1 C4.38125 1.495 3.7625 1.99 3.125 2.5 C1 4 1 4 -1 4 C-0.67 2.68 -0.34 1.36 0 0 Z " fill="#F27610" transform="translate(171,173)"/>
<path d="M0 0 C2 1 2 1 2.8515625 3.50390625 C3.10679687 4.51324219 3.36203125 5.52257812 3.625 6.5625 C3.88539063 7.57441406 4.14578125 8.58632813 4.4140625 9.62890625 C4.60742188 10.41136719 4.80078125 11.19382812 5 12 C4.34 11.67 3.68 11.34 3 11 C3 10.01 3 9.02 3 8 C2.01 8.33 1.02 8.66 0 9 C0 6.03 0 3.06 0 0 Z " fill="#3E3E3E" transform="translate(221,521)"/>
<path d="M0 0 C2.24956302 2.24956302 3.00510965 4.06323263 4.1875 7 C4.55230469 7.886875 4.91710937 8.77375 5.29296875 9.6875 C6 12 6 12 5 14 C0.07692308 7.96923077 0.07692308 7.96923077 -0.3125 3.0625 C-0.209375 2.051875 -0.10625 1.04125 0 0 Z " fill="#AB981C" transform="translate(384,391)"/>
<path d="M0 0 C0.66 0 1.32 0 2 0 C2.33 1.65 2.66 3.3 3 5 C3.66 5 4.32 5 5 5 C5.66 7.97 6.32 10.94 7 14 C4.60926851 11.06810006 3.15892693 8.27856712 1.8125 4.75 C1.46832031 3.85796875 1.12414062 2.9659375 0.76953125 2.046875 C0.51558594 1.37140625 0.26164063 0.6959375 0 0 Z " fill="#D47320" transform="translate(194,232)"/>
<path d="M0 0 C2.11386464 2.11386464 2.97008322 3.79267603 4.1875 6.5 C4.55230469 7.2940625 4.91710937 8.088125 5.29296875 8.90625 C5.52628906 9.5971875 5.75960937 10.288125 6 11 C5.67 11.66 5.34 12.32 5 13 C4.67 12.01 4.34 11.02 4 10 C3.34 10 2.68 10 2 10 C0.68373308 6.38026598 0 3.90432869 0 0 Z " fill="#582909" transform="translate(170,182)"/>
<path d="M0 0 C2.91375388 1.45687694 3.35777779 3.50753903 4.6875 6.4375 C5.14511719 7.42621094 5.60273438 8.41492188 6.07421875 9.43359375 C6.37972656 10.28050781 6.68523437 11.12742187 7 12 C6.67 12.66 6.34 13.32 6 14 C2.94097772 9.71736881 0 5.44371827 0 0 Z " fill="#A3801C" transform="translate(327,310)"/>
<path d="M0 0 C0.66 0 1.32 0 2 0 C2 1.65 2 3.3 2 5 C2.99 5.33 3.98 5.66 5 6 C5.33 8.64 5.66 11.28 6 14 C5.34 13.01 4.68 12.02 4 11 C3.484375 10.236875 2.96875 9.47375 2.4375 8.6875 C0.86617783 5.74981072 0.3825784 3.2901742 0 0 Z " fill="#C5891E" transform="translate(279,413)"/>
<path d="M0 0 C0.66 0 1.32 0 2 0 C2.70226141 1.24176695 3.38629109 2.49385599 4.0625 3.75 C4.44535156 4.44609375 4.82820313 5.1421875 5.22265625 5.859375 C6.1312406 8.36140628 5.88336837 9.5332355 5 12 C4.15885829 10.56705502 3.32734313 9.12845595 2.5 7.6875 C1.80390625 6.48673828 1.80390625 6.48673828 1.09375 5.26171875 C0 3 0 3 0 0 Z " fill="#382D05" transform="translate(369,358)"/>
<path d="M0 0 C3.03393954 3.46735947 4.9351577 7.52949826 6 12 C5.67 12.99 5.34 13.98 5 15 C4.15733289 13.25447527 3.32619962 11.5033792 2.5 9.75 C2.0359375 8.77546875 1.571875 7.8009375 1.09375 6.796875 C0 4 0 4 0 0 Z " fill="#D1971C" transform="translate(291,234)"/>
<path d="M0 0 C1.32 0.33 2.64 0.66 4 1 C4 2.65 4 4.3 4 6 C4.66 6.33 5.32 6.66 6 7 C5.01 8.485 5.01 8.485 4 10 C3.32845067 8.71086513 2.66291141 7.41859796 2 6.125 C1.62875 5.40570313 1.2575 4.68640625 0.875 3.9453125 C0 2 0 2 0 0 Z " fill="#5A420E" transform="translate(291,232)"/>
<path d="M0 0 C1.32 0 2.64 0 4 0 C4 0.99 4 1.98 4 3 C-0.62 3 -5.24 3 -10 3 C-10 2.67 -10 2.34 -10 2 C-6.7 2 -3.4 2 0 2 C0 1.34 0 0.68 0 0 Z " fill="#D7D7D7" transform="translate(351,538)"/>
<path d="M0 0 C0.66 0 1.32 0 2 0 C2.69710731 1.28650706 3.38242876 2.57940665 4.0625 3.875 C4.63677734 4.95394531 4.63677734 4.95394531 5.22265625 6.0546875 C5.47917969 6.69664062 5.73570312 7.33859375 6 8 C5.67 8.66 5.34 9.32 5 10 C3.5 8.75 3.5 8.75 2 7 C2 5.68 2 4.36 2 3 C1.34 3 0.68 3 0 3 C0 2.01 0 1.02 0 0 Z " fill="#CFB621" transform="translate(392,413)"/>
<path d="M0 0 C0.99 0 1.98 0 3 0 C5.09350689 3.4019487 5.17942163 6.05272412 5 10 C3 9 3 9 2.1484375 6.93359375 C1.89320313 6.10988281 1.63796875 5.28617187 1.375 4.4375 C1.11460937 3.61121094 0.85421875 2.78492188 0.5859375 1.93359375 C0.39257812 1.29550781 0.19921875 0.65742188 0 0 Z " fill="#C37E1B" transform="translate(253,359)"/>
<path d="M0 0 C0.99 0 1.98 0 3 0 C4.35439668 2.70879335 4.06501451 5.00933268 4 8 C3.67 7.34 3.34 6.68 3 6 C2.34 6 1.68 6 1 6 C0.67 4.02 0.34 2.04 0 0 Z " fill="#3D240B" transform="translate(226,306)"/>
<path d="M0 0 C2 2 2 2 2.125 5.125 C2.08375 6.07375 2.0425 7.0225 2 8 C1.01 7.67 0.02 7.34 -1 7 C-1.04254356 5.00045254 -1.04080783 2.99958364 -1 1 C-0.67 0.67 -0.34 0.34 0 0 Z " fill="#E6E6E6" transform="translate(227,527)"/>
<path d="M0 0 C1.5 1 1.5 1 3 3 C3.27345479 5.71846235 3.13491285 8.25677199 3 11 C0.43383368 7.15075052 0.44902324 4.5650696 0 0 Z " fill="#38250A" transform="translate(175,529)"/>
<path d="M0 0 C2.83374881 3.20336822 3.5205537 5.78087253 4 10 C3.01 9.67 2.02 9.34 1 9 C0.67 6.03 0.34 3.06 0 0 Z " fill="#54360C" transform="translate(276,409)"/>
<path d="M0 0 C3.01468588 2.00979059 3.83789182 2.70736015 5 6 C4.625 8.25 4.625 8.25 4 10 C3.34 9.67 2.68 9.34 2 9 C1.3671875 6.93359375 1.3671875 6.93359375 0.875 4.4375 C0.70742188 3.61121094 0.53984375 2.78492188 0.3671875 1.93359375 C0.24601562 1.29550781 0.12484375 0.65742188 0 0 Z " fill="#DCAA18" transform="translate(329,318)"/>
<path d="M0 0 C0.33 0.66 0.66 1.32 1 2 C1.66 2 2.32 2 3 2 C3.66 4.97 4.32 7.94 5 11 C1.71779105 9.35889552 1.25429211 6.30677012 0 3 C0 2.01 0 1.02 0 0 Z " fill="#442E07" transform="translate(307,264)"/>
<path d="M0 0 C2.83374881 3.20336822 3.5205537 5.78087253 4 10 C3.01 9.67 2.02 9.34 1 9 C0.67 6.03 0.34 3.06 0 0 Z " fill="#9F7319" transform="translate(296,242)"/>
<path d="M0 0 C2.96052484 3.36423277 3.92289822 6.69159287 5 11 C0.07692308 6.81538462 0.07692308 6.81538462 -0.3125 2.6875 C-0.209375 1.800625 -0.10625 0.91375 0 0 Z " fill="#4E2E07" transform="translate(283,424)"/>
<path d="M0 0 C2.00773956 2.00773956 2.99392854 3.36873617 4 6 C3.625 8.25 3.625 8.25 3 10 C2.34 9.67 1.68 9.34 1 9 C0.5859375 6.93359375 0.5859375 6.93359375 0.375 4.4375 C0.30023438 3.61121094 0.22546875 2.78492188 0.1484375 1.93359375 C0.09945312 1.29550781 0.05046875 0.65742188 0 0 Z " fill="#55300A" transform="translate(241,334)"/>
<path d="M0 0 C3 2 3 2 3.51171875 3.9453125 C3.67447917 5.96354167 3.83723958 7.98177083 4 10 C3.34 9.34 2.68 8.68 2 8 C2 7.01 2 6.02 2 5 C1.34 5 0.68 5 0 5 C0 3.35 0 1.7 0 0 Z " fill="#D4A71B" transform="translate(324,306)"/>
<path d="M0 0 C2.15377564 2.62198774 3.40072174 4.64404172 4 8 C2.68 7.67 1.36 7.34 0 7 C0 4.69 0 2.38 0 0 Z " fill="#4D2508" transform="translate(176,195)"/>
<path d="M0 0 C2.83374881 3.20336822 3.5205537 5.78087253 4 10 C3.34 10 2.68 10 2 10 C0.68373308 6.38026598 0 3.90432869 0 0 Z " fill="#4A3109" transform="translate(288,435)"/>
<path d="M0 0 C1.32 0.33 2.64 0.66 4 1 C4 3.31 4 5.62 4 8 C1.10067643 5.60490662 0.49831724 3.68754757 0 0 Z " fill="#5A4B0E" transform="translate(380,383)"/>
<path d="M0 0 C0.66 0 1.32 0 2 0 C2.33 1.98 2.66 3.96 3 6 C2.01 6.33 1.02 6.66 0 7 C-1.33332095 4.3333581 -0.67102033 2.83319697 0 0 Z " fill="#C1C2BF" transform="translate(240,369)"/>
<path d="M0 0 C0.66 0 1.32 0 2 0 C2.66 1.98 3.32 3.96 4 6 C2.68 6 1.36 6 0 6 C0 4.02 0 2.04 0 0 Z " fill="#E1AB52" transform="translate(173,535)"/>
<path d="M0 0 C0.99 0.33 1.98 0.66 3 1 C4.1875 4.0625 4.1875 4.0625 5 7 C3.0625 6.3125 3.0625 6.3125 1 5 C0.25 2.375 0.25 2.375 0 0 Z " fill="#C98E1B" transform="translate(285,427)"/>
</svg>
